<svg width="524" height="552" viewBox="0 0 524 552" fill="none" xmlns="http://www.w3.org/2000/svg">
<path d="M442.142 445.673C449.429 463.25 430.37 480.111 413.813 470.736L306.922 410.215C294.973 403.449 293.24 386.931 303.524 377.832L363.371 324.884C373.655 315.785 389.839 319.519 395.098 332.203L442.142 445.673Z" fill="#FFE500"/>
<circle cx="214" cy="214" r="214" fill="#FFE600"/>
<circle cx="94" cy="145" r="14" fill="black"/>
<circle cx="335" cy="145" r="14" fill="black"/>
<path d="M203.083 199.078C209.214 194.324 217.786 194.324 223.917 199.078L277.742 240.816C290.544 250.742 283.524 271.25 267.325 271.25H159.675C143.476 271.25 136.456 250.742 149.258 240.816L203.083 199.078Z" fill="#FFB800"/>
<path d="M223.917 368.922C217.786 373.676 209.214 373.676 203.083 368.922L149.258 327.184C136.456 317.258 143.476 296.75 159.675 296.75H267.325C283.524 296.75 290.544 317.258 277.742 327.184L223.917 368.922Z" fill="#FFB800"/>
<path d="M270 44L282.275 46.0459C297.92 48.6533 312.849 54.4944 326.109 63.1963V63.1963C334.006 68.3787 341.228 74.5219 347.611 81.4848L348.717 82.6911C356.207 90.862 362.597 99.9769 367.724 109.804L372 118" stroke="white" stroke-width="13"/>
</svg>
